<svg width="177" height="180" viewBox="0 0 177 180" fill="none" xmlns="http://www.w3.org/2000/svg">
<g clip-path="url(#clip0_102_78)">
<mask id="mask0_102_78" style="mask-type:alpha" maskUnits="userSpaceOnUse" x="0" y="0" width="174" height="180">
<path d="M1.2689 176.979C2.72895 179.029 5.19612 180.174 7.74923 179.978C75.6607 174.775 142.766 123.543 159.092 103.463C181.524 75.8609 178.294 36.936 151.742 14.8537C125.55 -6.93985 89.0843 -4.72488 61.0471 21.3225C43.501 37.6144 22.989 61.6551 5.6923 107.083C4.83623 109.318 5.21709 111.824 6.68505 113.727C8.15531 115.633 10.521 116.676 12.9648 116.498L34.3694 114.937C20.1673 132.769 5.70337 159.655 0.689318 170.016C-0.404939 172.272 -0.18523 174.928 1.2689 176.979Z" fill="#D9D9D9"/>
</mask>
<g mask="url(#mask0_102_78)">
<g filter="url(#filter0_ii_102_78)">
<path d="M-2.72809 178.759C-1.20872 180.866 1.3587 182.043 4.01554 181.842C74.6863 176.493 144.519 123.827 161.508 103.186C184.851 74.8106 181.49 34.7963 153.859 12.096C126.603 -10.3075 88.6553 -8.03048 59.4789 18.7459C41.2199 35.4938 19.8745 60.2073 1.87502 106.906C0.984177 109.204 1.3805 111.78 2.90812 113.736C4.43811 115.696 6.89995 116.768 9.44303 116.585L31.7173 114.981C16.9382 133.312 1.88653 160.95 -3.33124 171.601C-4.46996 173.92 -4.24131 176.65 -2.72809 178.759Z" fill="url(#paint0_linear_102_78)"/>
</g>
<g style="mix-blend-mode:screen" opacity="0.4" filter="url(#filter1_f_102_78)">
<path d="M14.5944 161.089C15.9226 162.931 18.1668 163.96 20.4892 163.784C82.2642 159.108 143.306 113.072 158.157 95.0285C178.562 70.2254 175.623 35.2479 151.471 15.405C127.646 -4.17838 94.4748 -2.18803 68.971 21.2178C53.0104 35.8576 34.3519 57.4602 18.6181 98.2807C17.8394 100.289 18.1858 102.541 19.5212 104.251C20.8586 105.964 23.0105 106.901 25.2335 106.741L44.7039 105.339C31.7852 121.362 18.6282 145.522 14.0672 154.832C13.0718 156.859 13.2717 159.246 14.5944 161.089Z" fill="url(#paint1_linear_102_78)"/>
</g>
<g filter="url(#filter2_f_102_78)">
<path d="M38.1345 140.24C39.2186 141.744 41.0505 142.584 42.9462 142.44C93.3703 138.624 143.196 101.047 155.318 86.3184C171.974 66.0727 169.575 37.5222 149.86 21.3253C130.413 5.34029 103.337 6.96493 82.5197 26.0701C69.4918 38.0198 54.2617 55.6531 41.4189 88.9731C40.7833 90.6127 41.0661 92.4504 42.156 93.8463C43.2477 95.2447 45.0042 96.0095 46.8187 95.8792L62.7116 94.7343C52.1666 107.814 41.4271 127.534 37.7042 135.134C36.8917 136.788 37.0548 138.736 38.1345 140.24Z" fill="white"/>
</g>
<g filter="url(#filter3_f_102_78)">
<path d="M94.0423 88.2154C94.8755 89.3712 96.2834 90.0166 97.7404 89.9063C136.495 86.9728 174.79 58.0922 184.106 46.7727C196.907 31.2124 195.064 9.26936 179.911 -3.179C164.965 -15.4646 144.155 -14.216 128.155 0.467638C118.143 9.65186 106.437 23.2042 96.5666 48.8129C96.0781 50.0731 96.2954 51.4855 97.1331 52.5583C97.9721 53.6331 99.3222 54.2209 100.717 54.1208L112.932 53.2408C104.827 63.2932 96.5729 78.4494 93.7116 84.2905C93.0871 85.562 93.2125 87.0593 94.0423 88.2154Z" fill="white"/>
</g>
</g>
</g>
<path d="M79.1672 49.6215C79.0076 50.3975 78.9208 51.2035 78.9068 52.0394L78.4913 79.5291C85.5822 83.0513 90.3187 84.8124 92.7008 84.8124C93.0885 84.8124 93.4486 84.7574 93.781 84.6473C98.1574 83.5466 100.346 80.4371 100.346 75.319C100.346 74.2183 100.235 72.98 100.013 71.6041C98.6837 64.6148 96.357 58.8362 93.0331 54.2683C88.1792 47.5976 82.2489 43.5572 75.8896 38.7174L86.2615 27.584C88.5914 28.9428 89.9255 30.1435 92.3028 32.3851C93.5296 33.5419 94.768 34.7096 96.0233 35.778C97.1262 36.7168 98.2027 37.6206 99.2482 38.4985C108.406 46.188 115.191 51.8845 116.632 61.6154C116.799 62.8812 116.882 64.0919 116.882 65.2477C116.882 68.8799 115.94 71.8243 114.057 74.0807L88.7952 109C87.6319 108.615 82.6738 105.891 73.921 100.827C65.2236 95.7092 60.9303 93.04 61.0411 92.8199L46.9978 107.597L18.0803 88.6923C21.5149 84.1245 23.3153 79.9969 23.4815 76.3096L23.897 44.94C23.897 43.2339 23.066 41.8305 21.4041 40.7298C19.7976 39.5741 18.3295 38.5009 17 37.5103L22.3251 30.2635L45.5658 47.9509C45.1716 48.7517 44.9564 49.5642 44.9204 50.3884L44.0063 73.3377C43.8955 76.0344 45.502 78.4834 48.8259 80.6848C52.2051 82.8862 54.9196 84.5372 56.9693 85.6379C57.8003 83.7667 58.3266 82.1707 58.5482 80.8499C58.7698 79.474 58.8806 76.6673 58.8806 72.4296L58.9636 55.5066C58.9636 53.3602 58.4928 51.3515 57.551 49.4803C53.4872 45.2676 49.114 41.7195 44.5 38L52.6056 29.4068L79.1672 49.6215Z" fill="#1B2965"/>
<path fill-rule="evenodd" clip-rule="evenodd" d="M110.688 91.8293L155.894 107.597C155.894 107.597 166 96.5 170.255 83.7392C166.655 83.8493 166.613 83.6842 164.12 83.9043C161.683 84.0694 159.55 84.152 157.722 84.152C155.949 84.152 153.678 84.0144 150.908 83.7392C148.138 83.464 145.617 81.9781 143.346 79.2814L177 44.1144L144.676 21.0826H144.592L144.426 21V21.2477L111.355 39.0408C124.054 53.5474 123.972 56.5251 123.786 63.2446C123.762 64.1136 123.737 65.0459 123.737 66.0732C123.737 70.2481 117.007 81.377 111.981 89.6881C111.534 90.4263 111.101 91.1423 110.688 91.8293ZM137.28 56.3321C137.28 47.6367 138.886 43.2889 142.1 43.2889C144.149 43.2889 146.919 44.8024 150.409 47.8293C151.406 48.8199 152.376 50.0857 153.318 51.6266C154.315 53.1676 154.813 54.4334 154.813 55.424C154.813 56.4146 154.342 57.4053 153.401 58.3959L140.022 72.4296C139.856 72.0994 139.773 71.6867 139.773 71.1914C138.111 66.2383 137.28 61.2852 137.28 56.3321Z" fill="#1B2965"/>
<defs>
<filter id="filter0_ii_102_78" x="-17.4837" y="-3.17334" width="194.505" height="191.755" filterUnits="userSpaceOnUse" color-interpolation-filters="sRGB">
<feFlood flood-opacity="0" result="BackgroundImageFix"/>
<feBlend mode="normal" in="SourceGraphic" in2="BackgroundImageFix" result="shape"/>
<feColorMatrix in="SourceAlpha" type="matrix" values="0 0 0 0 0 0 0 0 0 0 0 0 0 0 0 0 0 0 127 0" result="hardAlpha"/>
<feOffset/>
<feGaussianBlur stdDeviation="16.7942"/>
<feComposite in2="hardAlpha" operator="arithmetic" k2="-1" k3="1"/>
<feColorMatrix type="matrix" values="0 0 0 0 1 0 0 0 0 0.48 0 0 0 0 0 0 0 0 0.15 0"/>
<feBlend mode="normal" in2="shape" result="effect1_innerShadow_102_78"/>
<feColorMatrix in="SourceAlpha" type="matrix" values="0 0 0 0 0 0 0 0 0 0 0 0 0 0 0 0 0 0 127 0" result="hardAlpha"/>
<feOffset dx="-33.5884" dy="6.71769"/>
<feGaussianBlur stdDeviation="6.71769"/>
<feComposite in2="hardAlpha" operator="arithmetic" k2="-1" k3="1"/>
<feColorMatrix type="matrix" values="0 0 0 0 1 0 0 0 0 0.30875 0 0 0 0 0.0125 0 0 0 0.22 0"/>
<feBlend mode="normal" in2="effect1_innerShadow_102_78" result="effect2_innerShadow_102_78"/>
</filter>
<filter id="filter1_f_102_78" x="6.72225" y="-4.65995" width="171.713" height="175.181" filterUnits="userSpaceOnUse" color-interpolation-filters="sRGB">
<feFlood flood-opacity="0" result="BackgroundImageFix"/>
<feBlend mode="normal" in="SourceGraphic" in2="BackgroundImageFix" result="shape"/>
<feGaussianBlur stdDeviation="3.35884" result="effect1_foregroundBlur_102_78"/>
</filter>
<filter id="filter2_f_102_78" x="-50.1376" y="-76.8994" width="303.855" height="306.686" filterUnits="userSpaceOnUse" color-interpolation-filters="sRGB">
<feFlood flood-opacity="0" result="BackgroundImageFix"/>
<feBlend mode="normal" in="SourceGraphic" in2="BackgroundImageFix" result="shape"/>
<feGaussianBlur stdDeviation="43.665" result="effect1_foregroundBlur_102_78"/>
</filter>
<filter id="filter3_f_102_78" x="42.9357" y="-61.9351" width="200.06" height="202.236" filterUnits="userSpaceOnUse" color-interpolation-filters="sRGB">
<feFlood flood-opacity="0" result="BackgroundImageFix"/>
<feBlend mode="normal" in="SourceGraphic" in2="BackgroundImageFix" result="shape"/>
<feGaussianBlur stdDeviation="25.1913" result="effect1_foregroundBlur_102_78"/>
</filter>
<linearGradient id="paint0_linear_102_78" x1="-11.568" y1="195.821" x2="120.257" y2="27.0315" gradientUnits="userSpaceOnUse">
<stop stop-color="#4465D5"/>
<stop offset="1" stop-color="#A9B2F9"/>
</linearGradient>
<linearGradient id="paint1_linear_102_78" x1="82.6036" y1="86.9242" x2="125.59" y2="31.207" gradientUnits="userSpaceOnUse">
<stop stop-color="white" stop-opacity="0"/>
<stop offset="1" stop-color="white"/>
</linearGradient>
<clipPath id="clip0_102_78">
<rect width="174" height="180" fill="white"/>
</clipPath>
</defs>
</svg>
